<svg xmlns="http://www.w3.org/2000/svg" viewBox="0 0 272.1 125.94"><defs><style>.cls-1{font-size:76.95px;fill:#231f20;font-family:Oswald-Light, Oswald;}.cls-2,.cls-3,.cls-4{fill:none;stroke:#231f20;stroke-miterlimit:10;stroke-width:2px;}.cls-3{stroke-linecap:square;}.cls-4{stroke-linecap:round;}</style></defs><title>Resurs 2Kluft</title><g id="Lager_2" data-name="Lager 2"><g id="Final"><g id="Dark_Alt." data-name="Dark Alt."><text class="cls-1" transform="translate(103.44 80.18)">KLÜFT</text><path class="cls-2" d="M101.14,102.58A55,55,0,0,1,23.36,24.8"/><path class="cls-3" d="M18.94,20.38,105.56,107A61.25,61.25,0,0,1,18.94,20.38"/><path class="cls-2" d="M55.71,57.15A9.25,9.25,0,0,0,68.79,70.23"/><line class="cls-4" x1="66.22" y1="76.11" x2="78.62" y2="111.07"/><line class="cls-4" x1="58.31" y1="74.8" x2="41.39" y2="110.62"/><line class="cls-4" x1="50.83" y1="60.07" x2="15.05" y2="47.35"/><line class="cls-4" x1="51.14" y1="67.62" x2="16.05" y2="84.21"/><path class="cls-4" d="M36.2,112.14a4,4,0,0,0,5.39-1.94h0a3.87,3.87,0,0,0,2.06,5.25"/><path class="cls-4" d="M56.74,71.11h0a3.11,3.11,0,0,1,1.38,4.09l0,.11.24-.51a3.35,3.35,0,0,1,3.61-1.87h0"/><path class="cls-4" d="M55.14,69.6,55,69.26a3.33,3.33,0,0,0-4.32-1.4h0l.51-.24A3.35,3.35,0,0,0,53,64h0"/><path class="cls-4" d="M53,63.69h0a3.33,3.33,0,0,0-2.17-3.62l-.9-.32,1.27.45a2.5,2.5,0,0,0,3.14-1.36h0"/><path class="cls-4" d="M62,72.93h0a3.65,3.65,0,0,1,3.92,2.39l.28.79-.47-1.32a2.6,2.6,0,0,1,1.38-3.24h0"/><line class="cls-4" x1="67.23" y1="71.49" x2="67.23" y2="71.49"/><path class="cls-4" d="M14,90.16a4.42,4.42,0,0,1,2-6c-2.43,1.14-4.87-.22-5.85-2.71"/><path class="cls-4" d="M8.84,50.54a4.82,4.82,0,0,1,6.21-3.19l0,0-.14,0A4.79,4.79,0,0,1,12.11,41"/><path class="cls-4" d="M75.48,117.08a4.62,4.62,0,0,0,3.14-6h0l.22.61A3.88,3.88,0,0,0,84,114.21"/></g></g></g></svg>