<svg xmlns="http://www.w3.org/2000/svg" xmlns:xlink="http://www.w3.org/1999/xlink" viewBox="0 0 274.77 128.6"><defs><style>.cls-1,.cls-6,.cls-7{fill:none;}.cls-2{font-size:76.95px;font-family:Oswald-Light, Oswald;}.cls-3{clip-path:url(#clip-path);}.cls-4{fill:#fdc177;}.cls-5{fill:#fed4a9;}.cls-5,.cls-6,.cls-7,.cls-8{stroke:#fff;stroke-miterlimit:10;stroke-width:2px;}.cls-7,.cls-8{stroke-linecap:round;}.cls-8{fill:#fff;}</style><clipPath id="clip-path"><path class="cls-1" d="M19,17.78a64.92,64.92,0,0,0,91.81,91.81"/></clipPath></defs><title>Resurs 1Kluft</title><g id="Lager_2" data-name="Lager 2"><g id="Final"><g id="Light"><text class="cls-2" transform="translate(106.1 80.18)">KLÜFT</text><g class="cls-3"><path class="cls-4" d="M19,109.59a64.92,64.92,0,0,0,91.81,0L19,17.78A64.92,64.92,0,0,0,19,109.59Z"/><path class="cls-5" d="M103.81,102.58A55,55,0,0,1,26,24.8"/><path class="cls-6" d="M21.61,20.38A61.25,61.25,0,0,0,108.23,107"/><path class="cls-6" d="M58.38,57.15A9.25,9.25,0,0,0,71.46,70.23"/><line class="cls-7" x1="68.89" y1="76.11" x2="81.29" y2="111.07"/><line class="cls-7" x1="60.98" y1="74.8" x2="44.06" y2="110.62"/><line class="cls-7" x1="53.5" y1="60.07" x2="17.72" y2="47.35"/><line class="cls-7" x1="53.8" y1="67.62" x2="18.71" y2="84.21"/><path class="cls-8" d="M38.87,112.14a4,4,0,0,0,5.38-1.94h0a3.87,3.87,0,0,0,2.06,5.25"/><path class="cls-7" d="M59.4,71.11h0a3.11,3.11,0,0,1,1.39,4.09l0,.11L61,74.8a3.35,3.35,0,0,1,3.61-1.87h0"/><path class="cls-7" d="M57.8,69.6l-.18-.34a3.32,3.32,0,0,0-4.32-1.39h0l.5-.25A3.34,3.34,0,0,0,55.67,64h0"/><path class="cls-7" d="M55.67,63.69h0a3.33,3.33,0,0,0-2.17-3.62l-.9-.32,1.26.45A2.51,2.51,0,0,0,57,58.84h0"/><path class="cls-7" d="M64.68,72.93h0a3.66,3.66,0,0,1,3.93,2.39l.28.79-.47-1.32a2.59,2.59,0,0,1,1.38-3.24h0"/><line class="cls-7" x1="69.9" y1="71.49" x2="69.9" y2="71.49"/><path class="cls-8" d="M16.69,90.16a4.44,4.44,0,0,1,2-6c-2.42,1.14-4.86-.22-5.84-2.71"/><path class="cls-8" d="M11.5,50.54a4.83,4.83,0,0,1,6.22-3.19l0,0-.13,0A4.79,4.79,0,0,1,14.78,41"/><path class="cls-8" d="M78.15,117.08a4.63,4.63,0,0,0,3.14-6h0l.22.61a3.87,3.87,0,0,0,5.17,2.53"/></g></g></g></g></svg>