<?xml version="1.0" encoding="utf-8"?>
<!-- Generator: Adobe Illustrator 22.0.1, SVG Export Plug-In . SVG Version: 6.00 Build 0)  -->
<svg version="1.1" id="Lager_1" xmlns="http://www.w3.org/2000/svg" xmlns:xlink="http://www.w3.org/1999/xlink" x="0px" y="0px"
	 viewBox="0 0 271.6 128.5" style="enable-background:new 0 0 271.6 128.5;" xml:space="preserve">
<style type="text/css">
	.st0{enable-background:new    ;}
	.st1{fill:#FFFFFF;}
	.st2{fill:none;stroke:#FFFFFF;stroke-width:2;stroke-miterlimit:10;}
	.st3{fill:none;stroke:#FFFFFF;stroke-width:2;stroke-linecap:square;stroke-miterlimit:10;}
	.st4{fill:none;stroke:#FFFFFF;stroke-width:2;stroke-linecap:round;stroke-miterlimit:10;}
	.st5{fill:#FFFFFF;stroke:#FFFFFF;stroke-width:2;stroke-linecap:round;stroke-miterlimit:10;}
</style>
<title>2Rityta 1Kluft</title>
<g id="Lager_2_1_">
	<g id="Final">
		<g id="Dark_Alt.">
			<g class="st0">
				<path class="st1" d="M109.7,80.2V17.9h5.9v32.9l16.6-32.9h5.6l-12.8,26.8l15.5,35.6h-5.8L121.2,49l-5.5,10.2v21H109.7z"/>
				<path class="st1" d="M146.2,80.2V17.9h5.8v57.9h17.7v4.4H146.2z"/>
				<path class="st1" d="M190.8,81c-4.2,0-7.5-0.8-9.8-2.3c-2.3-1.5-3.9-3.6-4.8-6.3c-0.9-2.7-1.3-5.8-1.3-9.2V17.9h5.7v45.5
					c0,2.4,0.3,4.6,0.8,6.6s1.6,3.5,3,4.7c1.5,1.1,3.6,1.7,6.4,1.7c2.7,0,4.7-0.6,6.2-1.7c1.5-1.2,2.5-2.7,3.1-4.7
					c0.6-1.9,0.9-4.1,0.9-6.5V17.9h5.6v45.3c0,3.4-0.5,6.5-1.4,9.2c-0.9,2.7-2.5,4.8-4.8,6.3C198.1,80.2,194.9,81,190.8,81z
					 M181.7,6.9V0h5.8v6.8H181.7z M194.4,6.9V0h5.8v6.8H194.4z"/>
				<path class="st1" d="M216.9,80.2V17.9h22.4v4.4h-16.5v23.5h13.8V50h-13.8v30.2H216.9z"/>
				<path class="st1" d="M254.3,80.2V22.4h-11.8v-4.5h29.1v4.5h-11.5v57.8H254.3z"/>
			</g>
			<path class="st2" d="M103.2,103.5c-21.5,21.5-56.3,21.5-77.8,0s-21.5-56.3,0-77.8"/>
			<path class="st3" d="M21,21.3l86.6,86.6c-24,23.8-62.8,23.7-86.6-0.3C-2.7,83.7-2.7,45.2,21,21.3"/>
			<path class="st2" d="M57.7,58c-3.6,3.6-3.6,9.5,0,13.1c3.6,3.6,9.5,3.6,13.1,0l0,0"/>
			<line class="st4" x1="68.3" y1="77.1" x2="80.7" y2="112"/>
			<line class="st4" x1="60.3" y1="75.7" x2="43.4" y2="111.6"/>
			<line class="st4" x1="52.9" y1="61" x2="17.1" y2="48.3"/>
			<line class="st4" x1="53.2" y1="68.6" x2="18.1" y2="85.1"/>
			<path class="st5" d="M38.2,113.1c2,1,4.4,0.1,5.3-1.8v-0.1l0,0c-0.9,1.9-0.1,4.2,1.8,5.2l0.2,0.1"/>
			<path class="st4" d="M58.8,72.1L58.8,72.1c1.5,0.8,2.1,2.6,1.4,4.1v0.1l0.2-0.5c0.6-1.4,2.1-2.1,3.6-1.9l0,0"/>
			<path class="st4" d="M57.2,70.5L57,70.2c-0.8-1.5-2.7-2.1-4.3-1.4l0,0l0.5-0.2c1.3-0.7,2.1-2.1,1.8-3.6l0,0"/>
			<path class="st4" d="M55,64.6L55,64.6c0.2-1.6-0.7-3-2.2-3.6l-0.9-0.3l1.3,0.5c1.2,0.4,2.6-0.2,3.1-1.4l0,0"/>
			<path class="st4" d="M64,73.9L64,73.9c1.7-0.3,3.4,0.7,4,2.4l0.3,0.8l-0.5-1.3c-0.5-1.3,0.1-2.7,1.4-3.2l0,0"/>
			<line class="st4" x1="69.3" y1="72.4" x2="69.3" y2="72.4"/>
			<path class="st5" d="M16,91.1c-1.1-2.2-0.3-4.8,1.9-6c0,0,0,0,0.1,0H18c-2.4,1.2-4.9-0.2-5.9-2.7"/>
			<path class="st5" d="M10.9,51.5c0.7-2.6,3.4-4,6-3.3c0,0,0,0,0,0l0.3,0.1H17c-2.5-0.9-3.8-3.6-3-6.1c0,0,0,0,0,0l0.1-0.2"/>
			<path class="st5" d="M77.5,118.1c2.5-0.7,3.9-3.2,3.2-5.7c0-0.1-0.1-0.2-0.1-0.3l0,0l0.2,0.6c0.6,2.1,2.8,3.2,4.8,2.6
				c0,0,0,0,0,0l0.3-0.1"/>
		</g>
	</g>
</g>
</svg>
