<?xml version="1.0" encoding="utf-8"?>
<!-- Generator: Adobe Illustrator 22.0.1, SVG Export Plug-In . SVG Version: 6.00 Build 0)  -->
<svg version="1.1" id="Lager_1" xmlns="http://www.w3.org/2000/svg" xmlns:xlink="http://www.w3.org/1999/xlink" x="0px" y="0px"
	 viewBox="0 0 271.6 128.5" style="enable-background:new 0 0 271.6 128.5;" xml:space="preserve">
<style type="text/css">
	.st0{enable-background:new    ;}
	.st1{clip-path:url(#SVGID_2_);}
	.st2{fill:#FDC177;}
	.st3{fill:#FED4A9;stroke:#FFFFFF;stroke-width:2;stroke-miterlimit:10;}
	.st4{fill:none;stroke:#FFFFFF;stroke-width:2;stroke-miterlimit:10;}
	.st5{fill:none;stroke:#FFFFFF;stroke-width:2;stroke-linecap:round;stroke-miterlimit:10;}
	.st6{fill:#FFFFFF;stroke:#FFFFFF;stroke-width:2;stroke-linecap:round;stroke-miterlimit:10;}
</style>
<title>Rityta 1Kluft</title>
<g id="Lager_2_1_">
	<g id="Final">
		<g id="Light">
			<g class="st0">
				<path d="M109.7,80.2V17.9h5.9v32.9l16.6-32.9h5.6l-12.8,26.8l15.5,35.6h-5.8L121.2,49l-5.5,10.2v21H109.7z"/>
				<path d="M146.2,80.2V17.9h5.8v57.9h17.7v4.4H146.2z"/>
				<path d="M190.8,81c-4.2,0-7.5-0.8-9.8-2.3c-2.3-1.5-3.9-3.6-4.8-6.3c-0.9-2.7-1.3-5.8-1.3-9.2V17.9h5.7v45.5
					c0,2.4,0.3,4.6,0.8,6.6s1.6,3.5,3,4.7c1.5,1.1,3.6,1.7,6.4,1.7c2.7,0,4.7-0.6,6.2-1.7c1.5-1.2,2.5-2.7,3.1-4.7
					c0.6-1.9,0.9-4.1,0.9-6.5V17.9h5.6v45.3c0,3.4-0.5,6.5-1.4,9.2c-0.9,2.7-2.5,4.8-4.8,6.3C198.1,80.2,194.9,81,190.8,81z
					 M181.7,6.9V0h5.8v6.8H181.7z M194.4,6.9V0h5.8v6.8H194.4z"/>
				<path d="M216.9,80.2V17.9h22.4v4.4h-16.5v23.5h13.8V50h-13.8v30.2H216.9z"/>
				<path d="M254.3,80.2V22.4h-11.8v-4.5h29.1v4.5h-11.5v57.8H254.3z"/>
			</g>
			<g>
				<defs>
					<path id="SVGID_1_" d="M18.9,17.9c-25.3,25.5-25.1,66.6,0.4,91.8c25.3,25.1,66.1,25.1,91.4,0"/>
				</defs>
				<clipPath id="SVGID_2_">
					<use xlink:href="#SVGID_1_"  style="overflow:visible;"/>
				</clipPath>
				<g class="st1">
					<path class="st2" d="M18.9,109.7c25.4,25.4,66.5,25.4,91.8,0L18.9,17.9C-6.5,43.2-6.5,84.3,18.9,109.7z"/>
					<path class="st3" d="M103.7,102.7c-21.5,21.5-56.3,21.5-77.8,0s-21.5-56.3,0-77.8"/>
					<path class="st4" d="M21.5,20.5c-23.8,24-23.7,62.8,0.3,86.6c23.9,23.7,62.4,23.7,86.3,0"/>
					<path class="st4" d="M58.3,57.2c-3.6,3.6-3.6,9.5,0,13.1c3.6,3.6,9.5,3.6,13.1,0"/>
					<line class="st5" x1="68.8" y1="76.2" x2="81.2" y2="111.2"/>
					<line class="st5" x1="60.9" y1="74.9" x2="44" y2="110.7"/>
					<line class="st5" x1="53.4" y1="60.2" x2="17.6" y2="47.4"/>
					<line class="st5" x1="53.7" y1="67.7" x2="18.6" y2="84.3"/>
					<path class="st6" d="M38.8,112.2c2,1,4.4,0.1,5.3-1.9c0,0,0,0,0,0v-0.1l0,0c-0.9,1.9-0.1,4.2,1.9,5.1c0,0,0,0,0,0l0.2,0.1"/>
					<path class="st5" d="M59.3,71.2L59.3,71.2c1.5,0.8,2.1,2.6,1.4,4.1v0.1l0.2-0.5c0.6-1.4,2.1-2.1,3.6-1.9l0,0"/>
					<path class="st5" d="M57.7,69.7l-0.2-0.3c-0.8-1.5-2.7-2.2-4.3-1.4l0,0l0.5-0.2c1.4-0.6,2.1-2.1,1.9-3.6l0,0"/>
					<path class="st5" d="M55.6,63.8L55.6,63.8c0.2-1.6-0.7-3.1-2.2-3.6l-0.9-0.3l1.3,0.5c1.2,0.4,2.6-0.2,3.1-1.4l0,0"/>
					<path class="st5" d="M64.6,73L64.6,73c1.7-0.2,3.4,0.8,3.9,2.4l0.3,0.8l-0.5-1.3c-0.5-1.3,0.1-2.7,1.4-3.2l0,0"/>
					<line class="st5" x1="69.8" y1="71.6" x2="69.8" y2="71.6"/>
					<path class="st6" d="M16.6,90.2c-1.1-2.2-0.2-4.9,2-6c0,0,0,0,0,0l0,0c-2.4,1.2-4.9-0.2-5.8-2.7"/>
					<path class="st6" d="M11.4,50.6c0.7-2.6,3.4-4,6-3.3c0,0,0,0,0,0l0.2,0.1h-0.1c-2.5-0.9-3.8-3.6-2.9-6.1l0.1-0.2"/>
				</g>
			</g>
		</g>
	</g>
</g>
</svg>
